<?xml version="1.0" encoding="UTF-8" standalone="no"?>
<!DOCTYPE svg PUBLIC "-//W3C//DTD SVG 1.1//EN"
 "http://www.w3.org/Graphics/SVG/1.1/DTD/svg11.dtd">
<!-- Generated by graphviz version 2.38.0 (20140413.2041)
 -->
<!-- Title: Classes Pages: 1 -->
<svg width="685pt" height="350pt"
 viewBox="0.00 0.00 685.00 350.00" xmlns="http://www.w3.org/2000/svg" xmlns:xlink="http://www.w3.org/1999/xlink">
<g id="graph0" class="graph" transform="scale(1 1) rotate(0) translate(4 346)">
<title>Classes</title>
<polygon fill="white" stroke="none" points="-4,4 -4,-346 681,-346 681,4 -4,4"/>
<!-- IAppInfo -->
<g id="node1" class="node"><title>IAppInfo</title>
<g id="a_node1"><a xlink:href="ooAppInfo.IAppInfo.html" xlink:title="IAppInfo">
<ellipse fill="none" stroke="black" cx="332.397" cy="-266.919" rx="44.6926" ry="18"/>
<text text-anchor="middle" x="332.397" y="-263.219" font-family="Times New Roman,serif" font-size="14.00">IAppInfo</text>
</a>
</g>
</g>
<!-- IInterface -->
<g id="node2" class="node"><title>IInterface</title>
<ellipse fill="none" stroke="black" cx="469.281" cy="-278.794" rx="45.4919" ry="18"/>
<text text-anchor="middle" x="469.281" y="-275.094" font-family="Times New Roman,serif" font-size="14.00">IInterface</text>
</g>
<!-- IAppInfo&#45;&gt;IInterface -->
<g id="edge1" class="edge"><title>IAppInfo&#45;&gt;IInterface</title>
<path fill="none" stroke="black" d="M376.462,-270.742C388.672,-271.801 402.074,-272.963 414.802,-274.068"/>
<polygon fill="black" stroke="black" points="414.565,-277.56 424.83,-274.938 415.17,-270.586 414.565,-277.56"/>
</g>
<!-- IAppParameter -->
<g id="node3" class="node"><title>IAppParameter</title>
<g id="a_node3"><a xlink:href="ooAppInfo.Parameter.IAppParameter.html" xlink:title="IAppParameter">
<ellipse fill="none" stroke="black" cx="475.306" cy="-234.49" rx="65.7887" ry="18"/>
<text text-anchor="middle" x="475.306" y="-230.79" font-family="Times New Roman,serif" font-size="14.00">IAppParameter</text>
</a>
</g>
</g>
<!-- IAppParameter&#45;&gt;IInterface -->
<g id="edge2" class="edge"><title>IAppParameter&#45;&gt;IInterface</title>
<path fill="none" stroke="black" d="M472.855,-252.51C472.844,-252.594 472.832,-252.678 472.821,-252.762"/>
<polygon fill="black" stroke="black" points="469.628,-250.266 471.749,-260.646 476.564,-251.209 469.628,-250.266"/>
</g>
<!-- IAppParameterParser -->
<g id="node4" class="node"><title>IAppParameterParser</title>
<g id="a_node4"><a xlink:href="ooAppInfo.Parameter.Parser.IAppParameterParser.html" xlink:title="IAppParameterParser">
<ellipse fill="none" stroke="black" cx="463.07" cy="-323.628" rx="89.0842" ry="18"/>
<text text-anchor="middle" x="463.07" y="-319.928" font-family="Times New Roman,serif" font-size="14.00">IAppParameterParser</text>
</a>
</g>
</g>
<!-- IAppParameterParser&#45;&gt;IInterface -->
<g id="edge3" class="edge"><title>IAppParameterParser&#45;&gt;IInterface</title>
<path fill="none" stroke="black" d="M465.596,-305.392C465.608,-305.304 465.621,-305.216 465.633,-305.128"/>
<polygon fill="black" stroke="black" points="468.872,-307.254 466.777,-296.868 461.938,-306.293 468.872,-307.254"/>
</g>
<!-- IAppVersion -->
<g id="node5" class="node"><title>IAppVersion</title>
<g id="a_node5"><a xlink:href="ooAppInfo.Version.IAppVersion.html" xlink:title="IAppVersion">
<ellipse fill="none" stroke="black" cx="619.116" cy="-288.557" rx="57.6901" ry="18"/>
<text text-anchor="middle" x="619.116" y="-284.857" font-family="Times New Roman,serif" font-size="14.00">IAppVersion</text>
</a>
</g>
</g>
<!-- IAppVersion&#45;&gt;IInterface -->
<g id="edge4" class="edge"><title>IAppVersion&#45;&gt;IInterface</title>
<path fill="none" stroke="black" d="M562.47,-284.866C550.039,-284.056 536.893,-283.2 524.519,-282.393"/>
<polygon fill="black" stroke="black" points="524.544,-278.888 514.338,-281.73 524.089,-285.873 524.544,-278.888"/>
</g>
<!-- TAppInfo -->
<g id="node6" class="node"><title>TAppInfo</title>
<g id="a_node6"><a xlink:href="ooAppInfo.TAppInfo.html" xlink:title="TAppInfo">
<ellipse fill="none" stroke="black" cx="47.6458" cy="-147.878" rx="48.1917" ry="18"/>
<text text-anchor="middle" x="47.6458" y="-144.178" font-family="Times New Roman,serif" font-size="14.00">TAppInfo</text>
</a>
</g>
</g>
<!-- TInterfacedObject -->
<g id="node7" class="node"><title>TInterfacedObject</title>
<ellipse fill="none" stroke="black" cx="217.495" cy="-159.696" rx="77.1866" ry="18"/>
<text text-anchor="middle" x="217.495" y="-155.996" font-family="Times New Roman,serif" font-size="14.00">TInterfacedObject</text>
</g>
<!-- TAppInfo&#45;&gt;TInterfacedObject -->
<g id="edge5" class="edge"><title>TAppInfo&#45;&gt;TInterfacedObject</title>
<path fill="none" stroke="black" d="M94.9583,-151.17C106.848,-151.997 119.97,-152.91 133.076,-153.822"/>
<polygon fill="black" stroke="black" points="132.855,-157.315 143.074,-154.518 133.341,-150.332 132.855,-157.315"/>
</g>
<!-- TAppParameter -->
<g id="node8" class="node"><title>TAppParameter</title>
<g id="a_node8"><a xlink:href="ooAppInfo.Parameter.TAppParameter.html" xlink:title="TAppParameter">
<ellipse fill="none" stroke="black" cx="224.198" cy="-113.998" rx="68.7879" ry="18"/>
<text text-anchor="middle" x="224.198" y="-110.298" font-family="Times New Roman,serif" font-size="14.00">TAppParameter</text>
</a>
</g>
</g>
<!-- TAppParameter&#45;&gt;TInterfacedObject -->
<g id="edge6" class="edge"><title>TAppParameter&#45;&gt;TInterfacedObject</title>
<path fill="none" stroke="black" d="M221.549,-132.059C221.535,-132.156 221.521,-132.253 221.506,-132.35"/>
<polygon fill="black" stroke="black" points="218.157,-131.065 220.169,-141.467 225.083,-132.081 218.157,-131.065"/>
</g>
<!-- TAppParameterParser -->
<g id="node9" class="node"><title>TAppParameterParser</title>
<g id="a_node9"><a xlink:href="ooAppInfo.Parameter.Parser.TAppParameterParser.html" xlink:title="TAppParameterParser">
<ellipse fill="none" stroke="black" cx="212.362" cy="-206.073" rx="91.784" ry="18"/>
<text text-anchor="middle" x="212.362" y="-202.373" font-family="Times New Roman,serif" font-size="14.00">TAppParameterParser</text>
</a>
</g>
</g>
<!-- TAppParameterParser&#45;&gt;TInterfacedObject -->
<g id="edge7" class="edge"><title>TAppParameterParser&#45;&gt;TInterfacedObject</title>
<path fill="none" stroke="black" d="M214.362,-188.01C214.373,-187.905 214.385,-187.8 214.397,-187.695"/>
<polygon fill="black" stroke="black" points="217.872,-188.111 215.493,-177.786 210.914,-187.341 217.872,-188.111"/>
</g>
<!-- TAppVersion -->
<g id="node10" class="node"><title>TAppVersion</title>
<g id="a_node10"><a xlink:href="ooAppInfo.Version.TAppVersion.html" xlink:title="TAppVersion">
<ellipse fill="none" stroke="black" cx="400.911" cy="-167.552" rx="61.1893" ry="18"/>
<text text-anchor="middle" x="400.911" y="-163.852" font-family="Times New Roman,serif" font-size="14.00">TAppVersion</text>
</a>
</g>
</g>
<!-- TAppVersion&#45;&gt;TInterfacedObject -->
<g id="edge8" class="edge"><title>TAppVersion&#45;&gt;TInterfacedObject</title>
<path fill="none" stroke="black" d="M340.346,-164.958C328.688,-164.459 316.269,-163.927 303.976,-163.4"/>
<polygon fill="black" stroke="black" points="303.839,-159.891 293.698,-162.96 303.539,-166.885 303.839,-159.891"/>
</g>
<!-- TList -->
<g id="node11" class="node"><title>TList</title>
<ellipse fill="none" stroke="black" cx="366.442" cy="-62.5038" rx="30.5947" ry="18"/>
<text text-anchor="middle" x="366.442" y="-58.8038" font-family="Times New Roman,serif" font-size="14.00">TList</text>
</g>
<!-- TObject -->
<g id="node12" class="node"><title>TObject</title>
<ellipse fill="none" stroke="black" cx="377.689" cy="-107.83" rx="40.8928" ry="18"/>
<text text-anchor="middle" x="377.689" y="-104.13" font-family="Times New Roman,serif" font-size="14.00">TObject</text>
</g>
<!-- TList&#45;&gt;TObject -->
<g id="edge9" class="edge"><title>TList&#45;&gt;TObject</title>
<path fill="none" stroke="black" d="M370.887,-80.4179C370.911,-80.5137 370.935,-80.6097 370.959,-80.7059"/>
<polygon fill="black" stroke="black" points="367.397,-80.8862 373.203,-89.7489 374.191,-79.2003 367.397,-80.8862"/>
</g>
<!-- TAppParamList -->
<g id="node13" class="node"><title>TAppParamList</title>
<g id="a_node13"><a xlink:href="ooAppInfo.Parameter.TAppParamList.html" xlink:title="TAppParamList">
<ellipse fill="none" stroke="black" cx="475.992" cy="-17.6363" rx="69.5877" ry="18"/>
<text text-anchor="middle" x="475.992" y="-13.9363" font-family="Times New Roman,serif" font-size="14.00">TAppParamList</text>
</a>
</g>
</g>
<!-- TAppParamList&#45;&gt;TList -->
<g id="edge10" class="edge"><title>TAppParamList&#45;&gt;TList</title>
<path fill="none" stroke="black" d="M438.598,-32.9516C426.492,-37.9099 413.122,-43.3857 401.214,-48.2627"/>
<polygon fill="black" stroke="black" points="399.542,-45.165 391.615,-52.194 402.196,-51.6427 399.542,-45.165"/>
</g>
</g>
</svg>
