<?xml version="1.0" encoding="UTF-8" standalone="no"?>
<!DOCTYPE svg PUBLIC "-//W3C//DTD SVG 1.1//EN"
 "http://www.w3.org/Graphics/SVG/1.1/DTD/svg11.dtd">
<!-- Generated by graphviz version 2.38.0 (20140413.2041)
 -->
<!-- Title: Uses Pages: 1 -->
<svg width="805pt" height="252pt"
 viewBox="0.00 0.00 804.94 252.20" xmlns="http://www.w3.org/2000/svg" xmlns:xlink="http://www.w3.org/1999/xlink">
<g id="graph0" class="graph" transform="scale(1 1) rotate(0) translate(4 248.2)">
<title>Uses</title>
<polygon fill="white" stroke="none" points="-4,4 -4,-248.2 800.939,-248.2 800.939,4 -4,4"/>
<!-- ooAppInfo -->
<g id="node1" class="node"><title>ooAppInfo</title>
<g id="a_node1"><a xlink:href="ooAppInfo.html" xlink:title="ooAppInfo">
<ellipse fill="none" stroke="black" cx="51.9954" cy="-134.2" rx="51.9908" ry="18"/>
<text text-anchor="middle" x="51.9954" y="-130.5" font-family="Times New Roman,serif" font-size="14.00">ooAppInfo</text>
</a>
</g>
</g>
<!-- Classes -->
<g id="node2" class="node"><title>Classes</title>
<ellipse fill="none" stroke="black" cx="255.681" cy="-226.2" rx="38.1938" ry="18"/>
<text text-anchor="middle" x="255.681" y="-222.5" font-family="Times New Roman,serif" font-size="14.00">Classes</text>
</g>
<!-- ooAppInfo&#45;&gt;Classes -->
<g id="edge1" class="edge"><title>ooAppInfo&#45;&gt;Classes</title>
<path fill="none" stroke="black" d="M72.9094,-150.807C89.8245,-164.183 115.233,-182.607 139.991,-194.2 162.051,-204.53 188.103,-212.13 209.798,-217.325"/>
<polygon fill="black" stroke="black" points="209.214,-220.782 219.744,-219.613 210.784,-213.96 209.214,-220.782"/>
</g>
<!-- SysUtils -->
<g id="node3" class="node"><title>SysUtils</title>
<ellipse fill="none" stroke="black" cx="710.497" cy="-103.2" rx="40.8928" ry="18"/>
<text text-anchor="middle" x="710.497" y="-99.4995" font-family="Times New Roman,serif" font-size="14.00">SysUtils</text>
</g>
<!-- ooAppInfo&#45;&gt;SysUtils -->
<g id="edge2" class="edge"><title>ooAppInfo&#45;&gt;SysUtils</title>
<path fill="none" stroke="black" d="M87.5744,-120.903C103.313,-115.522 122.332,-109.94 139.991,-107.2 330.373,-77.6506 560.879,-90.7666 660.131,-98.7179"/>
<polygon fill="black" stroke="black" points="659.915,-102.212 670.167,-99.5405 660.487,-95.2352 659.915,-102.212"/>
</g>
<!-- ooAppInfo.Parameter -->
<g id="node4" class="node"><title>ooAppInfo.Parameter</title>
<g id="a_node4"><a xlink:href="ooAppInfo.Parameter.html" xlink:title="ooAppInfo.Parameter">
<ellipse fill="none" stroke="black" cx="497.712" cy="-172.2" rx="90.1842" ry="18"/>
<text text-anchor="middle" x="497.712" y="-168.5" font-family="Times New Roman,serif" font-size="14.00">ooAppInfo.Parameter</text>
</a>
</g>
</g>
<!-- ooAppInfo&#45;&gt;ooAppInfo.Parameter -->
<g id="edge3" class="edge"><title>ooAppInfo&#45;&gt;ooAppInfo.Parameter</title>
<path fill="none" stroke="black" d="M88.0249,-147.442C103.687,-152.741 122.522,-158.275 139.991,-161.2 226.631,-175.705 326.717,-177.517 398.782,-176.247"/>
<polygon fill="black" stroke="black" points="399.278,-179.738 409.206,-176.038 399.138,-172.739 399.278,-179.738"/>
</g>
<!-- ooAppInfo.Parameter.Parser -->
<g id="node5" class="node"><title>ooAppInfo.Parameter.Parser</title>
<g id="a_node5"><a xlink:href="ooAppInfo.Parameter.Parser.html" xlink:title="ooAppInfo.Parameter.Parser">
<ellipse fill="none" stroke="black" cx="255.681" cy="-134.2" rx="115.88" ry="18"/>
<text text-anchor="middle" x="255.681" y="-130.5" font-family="Times New Roman,serif" font-size="14.00">ooAppInfo.Parameter.Parser</text>
</a>
</g>
</g>
<!-- ooAppInfo&#45;&gt;ooAppInfo.Parameter.Parser -->
<g id="edge4" class="edge"><title>ooAppInfo&#45;&gt;ooAppInfo.Parameter.Parser</title>
<path fill="none" stroke="black" d="M104.15,-134.2C112.205,-134.2 120.824,-134.2 129.709,-134.2"/>
<polygon fill="black" stroke="black" points="129.836,-137.7 139.836,-134.2 129.836,-130.7 129.836,-137.7"/>
</g>
<!-- ooAppInfo.Version -->
<g id="node6" class="node"><title>ooAppInfo.Version</title>
<g id="a_node6"><a xlink:href="ooAppInfo.Version.html" xlink:title="ooAppInfo.Version">
<ellipse fill="none" stroke="black" cx="255.681" cy="-42.1995" rx="82.5854" ry="18"/>
<text text-anchor="middle" x="255.681" y="-38.4995" font-family="Times New Roman,serif" font-size="14.00">ooAppInfo.Version</text>
</a>
</g>
</g>
<!-- ooAppInfo&#45;&gt;ooAppInfo.Version -->
<g id="edge5" class="edge"><title>ooAppInfo&#45;&gt;ooAppInfo.Version</title>
<path fill="none" stroke="black" d="M72.9094,-117.592C89.8245,-104.216 115.233,-85.7924 139.991,-74.1995 154.273,-67.5118 170.228,-61.9682 185.591,-57.4807"/>
<polygon fill="black" stroke="black" points="186.892,-60.751 195.577,-54.6829 185.003,-54.0105 186.892,-60.751"/>
</g>
<!-- ooAppInfo.Parameter&#45;&gt;SysUtils -->
<g id="edge6" class="edge"><title>ooAppInfo.Parameter&#45;&gt;SysUtils</title>
<path fill="none" stroke="black" d="M545.492,-156.886C582.077,-144.91 632.479,-128.411 667.719,-116.876"/>
<polygon fill="black" stroke="black" points="668.817,-120.199 677.232,-113.761 666.639,-113.546 668.817,-120.199"/>
</g>
<!-- Generics.Collections -->
<g id="node7" class="node"><title>Generics.Collections</title>
<ellipse fill="none" stroke="black" cx="710.497" cy="-172.2" rx="86.3847" ry="18"/>
<text text-anchor="middle" x="710.497" y="-168.5" font-family="Times New Roman,serif" font-size="14.00">Generics.Collections</text>
</g>
<!-- ooAppInfo.Parameter&#45;&gt;Generics.Collections -->
<g id="edge7" class="edge"><title>ooAppInfo.Parameter&#45;&gt;Generics.Collections</title>
<path fill="none" stroke="black" d="M588.104,-172.2C596.652,-172.2 605.345,-172.2 613.949,-172.2"/>
<polygon fill="black" stroke="black" points="613.995,-175.7 623.995,-172.2 613.995,-168.7 613.995,-175.7"/>
</g>
<!-- ooAppInfo.Parameter.Parser&#45;&gt;SysUtils -->
<g id="edge8" class="edge"><title>ooAppInfo.Parameter.Parser&#45;&gt;SysUtils</title>
<path fill="none" stroke="black" d="M361.989,-126.99C455.632,-120.579 588.439,-111.487 659.705,-106.608"/>
<polygon fill="black" stroke="black" points="660.024,-110.095 669.762,-105.92 659.546,-103.111 660.024,-110.095"/>
</g>
<!-- ooAppInfo.Parameter.Parser&#45;&gt;ooAppInfo.Parameter -->
<g id="edge9" class="edge"><title>ooAppInfo.Parameter.Parser&#45;&gt;ooAppInfo.Parameter</title>
<path fill="none" stroke="black" d="M337.61,-147.012C363.082,-151.044 391.191,-155.494 416.606,-159.518"/>
<polygon fill="black" stroke="black" points="416.147,-162.989 426.572,-161.095 417.242,-156.075 416.147,-162.989"/>
</g>
<!-- ooAppInfo.Version&#45;&gt;SysUtils -->
<g id="edge11" class="edge"><title>ooAppInfo.Version&#45;&gt;SysUtils</title>
<path fill="none" stroke="black" d="M303.004,-27.3822C368.292,-8.94312 490.32,16.4884 588.054,-15.1995 626.827,-27.7705 663.591,-57.8729 686.306,-79.3653"/>
<polygon fill="black" stroke="black" points="684.118,-82.1189 693.734,-86.5655 688.99,-77.0924 684.118,-82.1189"/>
</g>
<!-- Windows -->
<g id="node8" class="node"><title>Windows</title>
<ellipse fill="none" stroke="black" cx="497.712" cy="-42.1995" rx="46.2923" ry="18"/>
<text text-anchor="middle" x="497.712" y="-38.4995" font-family="Times New Roman,serif" font-size="14.00">Windows</text>
</g>
<!-- ooAppInfo.Version&#45;&gt;Windows -->
<g id="edge10" class="edge"><title>ooAppInfo.Version&#45;&gt;Windows</title>
<path fill="none" stroke="black" d="M338.279,-42.1995C372.225,-42.1995 410.754,-42.1995 441.317,-42.1995"/>
<polygon fill="black" stroke="black" points="441.358,-45.6996 451.358,-42.1995 441.358,-38.6996 441.358,-45.6996"/>
</g>
</g>
</svg>
